<svg width="240" height="48" viewBox="0 0 240 48" fill="none" xmlns="http://www.w3.org/2000/svg">
<path d="M5.22778 32.0191L6.38676 28.7999L7.22518 29.097C7.52109 29.1961 7.81701 29.2951 8.11292 29.419C7.84166 28.3541 7.61973 27.215 7.44711 26.0264C5.89358 25.432 4.38936 24.7634 2.9098 24.0205L2.98378 27.636L0 29.7409C1.70149 30.5828 3.42765 31.3505 5.22778 32.0191Z" fill="#1A1A1A"/>
<path d="M45.3238 29.1219L46.1622 28.8248L47.3212 32.044C49.0966 31.3507 50.8475 30.6077 52.5489 29.741L49.5652 27.6609L49.6391 24.0454C48.1596 24.7883 46.6554 25.4569 45.1018 26.0513C44.9292 27.2399 44.7073 28.379 44.436 29.4439C44.7319 29.32 45.0279 29.221 45.3238 29.1219Z" fill="#1A1A1A"/>
<path d="M29.2706 16.7155C29.9117 16.7155 30.4295 16.1954 30.4295 15.5516C30.4295 14.9077 29.9117 14.3877 29.2706 14.3877C28.6294 14.3877 28.1116 14.9077 28.1116 15.5516C28.1116 16.1954 28.6294 16.7155 29.2706 16.7155Z" fill="#1A1A1A"/>
<path d="M28.6294 18.2011C28.6294 18.5478 28.9006 18.8202 29.2459 18.8202C29.5911 18.8202 29.8624 18.5478 29.8624 18.2011C29.8624 17.8544 29.5911 17.582 29.2459 17.582C28.9253 17.582 28.6294 17.8544 28.6294 18.2011Z" fill="#1A1A1A"/>
<path d="M32.9203 26.2988C32.9203 26.2988 31.638 25.1102 30.9476 25.1102H30.405H30.3064L30.0352 25.6302H28.5063L28.235 25.1102H27.5692C26.9034 25.1102 25.5965 26.2988 25.5965 26.2988V23.7977C25.5965 23.7977 25.8924 22.9062 26.9034 21.6928C26.9034 21.6928 26.3609 17.1858 26.3609 15.9477C26.3609 14.0904 28.0378 12.1836 28.0378 12.1836H19.333V13.3227L20.6646 13.6199V28.478L19.333 28.7752V29.9143H32.9203V26.2988Z" fill="#1A1A1A"/>
<path d="M26.7798 36.8975C26.7798 36.3279 26.6072 35.8574 25.9907 35.8574H25.5222L25.4976 37.9871H25.9168C26.5579 37.9871 26.7552 37.467 26.7798 36.8975Z" fill="#1A1A1A"/>
<path d="M20.6153 35.7339L20.1467 36.7492L20.8865 36.8235L20.6399 35.7339H20.6153Z" fill="#1A1A1A"/>
<path d="M10.5789 33.8765L9.93774 34.8175L10.6775 35.0156L10.6035 33.8765H10.5789Z" fill="#1A1A1A"/>
<path d="M17.9519 4.01172L17.582 5.10131H18.3218L17.9519 4.01172Z" fill="#1A1A1A"/>
<path d="M45.6198 29.9639C44.806 30.261 43.9676 30.5582 43.1292 30.8058C43.9923 28.1066 44.5101 25.0112 44.5101 21.47V0H8.01432V21.47C8.01432 25.0112 8.53216 28.1066 9.39524 30.8058C8.55682 30.5334 7.7184 30.261 6.90465 29.9639L4.56201 36.4024C7.52113 37.492 10.6035 38.3587 13.7599 39.0026C19.111 45.7382 26.2622 47.8431 26.2622 47.8431C26.2622 47.8431 33.4134 45.7382 38.7645 39.0026C41.9209 38.3587 45.0033 37.492 47.9624 36.4024L45.6198 29.9639ZM37.2849 6.01754H37.6055V3.86311H37.2849V3.29355H38.9371V3.86311H38.5672V4.60602H39.7509V3.86311H39.381V3.29355H41.0085V3.86311H40.6879V6.01754H41.0085V6.5871H39.381V6.01754H39.7509V5.2251H38.5672V6.01754H38.9371V6.5871H37.2849V6.01754ZM33.66 3.21926C34.0299 3.21926 34.3998 3.29355 34.6217 3.59071V3.26879H35.3862V4.50696H34.5477C34.5477 4.30885 34.4984 4.11075 34.3998 3.98693C34.3012 3.86311 34.1285 3.76406 33.9066 3.76406C33.2655 3.76406 33.1422 4.43267 33.1422 4.95271C33.1422 5.47274 33.2901 6.0423 33.9066 6.0423C34.0792 6.0423 34.2272 5.96801 34.3258 5.84419C34.4244 5.72038 34.4984 5.57179 34.4984 5.39845H35.4355C35.3862 6.26517 34.6957 6.5871 33.9066 6.5871C32.723 6.5871 32.1311 5.94325 32.1311 4.80412C32.1558 3.96216 32.6736 3.21926 33.66 3.21926ZM26.7061 6.01754H27.0267V3.86311H26.7061V3.29355H28.3089L29.3446 5.7699V3.86311H28.9994V3.29355H30.405V3.86311H30.1337V6.5871H28.9501L27.7911 3.98693V6.01754H28.161V6.5871H26.7061V6.01754ZM21.4536 3.29355H23.0318V3.86311H22.662V5.24987C22.662 5.69561 22.7113 6.09183 23.2291 6.09183C23.7716 6.09183 23.8209 5.72038 23.8209 5.24987V3.86311H23.4757V3.29355H24.906V3.86311H24.6594V5.24987C24.6594 6.28994 24.2648 6.66139 23.2291 6.66139C22.1688 6.66139 21.7249 6.36423 21.7249 5.24987V3.86311H21.4536V3.29355ZM16.1766 6.01754H16.3738L17.4835 3.29355H18.5932L19.6782 6.01754H19.8754V6.5871H18.3219V6.01754H18.6918L18.5438 5.64608H17.3602L17.2122 6.01754H17.5821V6.5871H16.1519V6.01754H16.1766ZM11.5653 6.01754H11.8858V3.86311H11.5653V3.29355H13.3161V3.86311H12.8229V6.01754H13.612V5.32416H14.3764V6.5871H11.5653V6.01754ZM11.7625 36.8481L10.283 36.4519L10.4309 35.9071L10.7762 36.0062L10.7268 35.61L9.59251 35.3128L9.37058 35.6347L9.71581 35.7338L9.56785 36.2786L8.21159 35.9071L8.35955 35.3623L8.55682 35.4118L10.3076 33.1088L11.368 33.406L11.6886 36.2786L11.8858 36.3281L11.7625 36.8481ZM11.8858 21.47V8.74152H40.6633V21.47C40.6633 25.3826 39.9481 28.9238 38.5426 32.044C34.5971 32.9355 30.5036 33.3812 26.2869 33.3812C22.0701 33.3812 17.9767 32.9107 14.0312 32.044C12.7242 29.1714 11.8858 25.7045 11.8858 21.47ZM24.2648 35.8081V35.2385L25.3991 35.2633C25.7444 35.2633 26.2129 35.2633 26.5335 35.3128C27.3472 35.4614 27.7664 36.13 27.7418 36.8977C27.7418 37.4177 27.5445 37.9625 27.076 38.2597C26.6321 38.5568 26.1636 38.532 25.6211 38.5073L24.1662 38.4825V37.913H24.4867L24.5114 35.7833L24.2648 35.8081ZM17.0643 35.8081L16.2505 35.6595C16.2752 35.4614 16.2752 35.288 16.2012 35.1394C16.1272 34.9909 15.9793 34.8918 15.782 34.8423C15.1655 34.7185 14.9189 35.3623 14.8203 35.8576C14.7217 36.3529 14.771 36.9472 15.3875 37.071C15.5601 37.0958 15.708 37.0462 15.8313 36.9719C15.9546 36.8729 16.0286 36.7243 16.0779 36.5757L16.9903 36.7491C16.793 37.5663 16.0533 37.7644 15.2888 37.6406C14.1545 37.4425 13.686 36.6995 13.8832 35.5852C14.0312 34.6937 14.6723 34.0746 15.6094 34.248C15.9546 34.3223 16.3245 34.4461 16.4725 34.7928L16.5218 34.4956L17.2616 34.6442L17.0643 35.8081ZM18.6918 37.5167L18.8891 37.5415L20.2207 34.9661L21.3303 35.0652L22.1441 37.8387L22.3414 37.8634L22.2921 38.433L20.7632 38.2844L20.8125 37.7149L21.1824 37.7396L21.0838 37.3682L19.9248 37.2691L19.7522 37.6158L20.122 37.6406L20.0727 38.2101L18.6918 38.0863V37.5167ZM26.2622 43.7076C24.832 43.1381 22.44 41.9494 20.0234 39.9188C22.0701 40.1169 24.1662 40.216 26.2869 40.216C28.3829 40.216 30.4543 40.1169 32.501 39.9188C30.0597 41.9494 27.6678 43.1381 26.2622 43.7076ZM29.6652 38.4578L29.6159 37.8882L29.9365 37.8634L29.7638 35.7585L29.4433 35.7833L29.3939 35.2137L32.427 34.9661L32.501 35.9814L31.7859 36.0309L31.7612 35.5852L30.7009 35.6842L30.7502 36.4519L31.0461 36.4272L31.0215 36.1052L31.5886 36.0557L31.6873 37.2443L31.1201 37.2939L31.0954 36.9472L30.7995 36.9719L30.8735 37.7891L31.9585 37.7149L31.9092 37.2196L32.6243 37.1701L32.6983 38.2349L29.6652 38.4578ZM37.7781 37.4672L37.6795 36.8977L37.9754 36.8481L37.6055 34.768L37.3342 37.5415L36.4958 37.6901L35.3122 35.1642L35.6821 37.2443L35.978 37.1948L36.0766 37.7396L34.7943 37.9625L34.6957 37.4177L34.967 37.3682L34.5971 35.288L34.3258 35.3376L34.2272 34.768L35.8793 34.4708L36.8411 36.6995L36.989 34.2727L38.6412 33.9756L38.7398 34.5451L38.4686 34.5946L38.8385 36.6748L39.1344 36.6253L39.233 37.1948L37.7781 37.4672ZM43.0305 35.6347L43.4744 35.5109L43.6224 36.0557L41.8716 36.551L41.7236 36.0062L42.1428 35.8824L41.9949 35.3376L40.5646 34.1241L40.3673 34.1737L40.2194 33.6289L41.7976 33.1831L41.9455 33.7279L41.5757 33.827L42.3154 34.4956L42.6113 33.5298L42.2661 33.6289L42.1182 33.0841L43.5484 32.6879L43.6964 33.2327L43.4991 33.2822L42.8826 35.0404L43.0305 35.6347Z" fill="#1A1A1A"/>
<path d="M63.0417 14.8665V16.09H63.7758C64.2856 16.09 64.4284 16.3755 64.4284 16.7222V27.6931C64.4284 28.0398 64.2856 28.3253 63.7758 28.3253H63.0417V29.5488H73.2786V26.1026H72.0347L71.5045 28.1214H66.2637V16.09H67.6503V14.8665H63.0417ZM78.7894 23.2477C75.8733 23.2477 74.4663 24.7159 74.4663 26.5308C74.4663 28.672 76.1384 29.6916 77.7902 29.6916C78.8506 29.6916 80.3596 29.3041 81.4812 28.4273C81.6443 29.4673 82.4804 29.6712 83.3369 29.6712C83.7651 29.6712 84.1729 29.61 84.54 29.508V28.4273H83.9486C83.3572 28.4273 83.1125 28.0806 83.1125 27.5912V22.1465C83.1125 19.1692 81.1753 18.2924 78.9525 18.2924C77.6678 18.2924 76.3016 18.6186 75.1596 18.9449V21.3512H76.0569C76.5055 19.6178 78.1165 19.5567 78.9118 19.5567C80.6043 19.5567 81.3588 20.6171 81.3588 21.7998V23.2477H78.7894ZM81.3588 27.2241C80.6451 27.7747 79.4216 28.3049 78.3408 28.3049C77.2192 28.3049 76.2812 27.8359 76.2812 26.4696C76.2812 24.8994 77.5251 24.4712 78.9729 24.4712H81.3588V27.2241ZM94.3626 28.2437C94.5462 29.5488 95.3822 29.6916 96.1979 29.6916C96.6466 29.6916 97.1156 29.61 97.4419 29.5284V28.4273H97.0136C96.3611 28.4273 96.0144 28.1418 96.0144 27.3465V18.5778H92.5477V19.6994H93.7101C94.016 19.6994 94.2607 19.7198 94.2607 20.1888V27.1018C93.3022 27.7135 91.8952 28.2845 90.8756 28.2845C89.4277 28.2845 88.6732 27.8155 88.6732 26.1026V18.5778H85.4717V19.6994H86.3689C86.6748 19.6994 86.9195 19.7198 86.9195 20.1888V26.592C86.9195 28.9167 88.3877 29.7935 90.0599 29.7935C91.365 29.7935 93.1391 29.0798 94.3626 28.2437ZM100.328 27.9378C100.328 28.4069 100.084 28.4273 99.7779 28.4273H98.901V29.5488H103.53V28.4273H102.082V21.0249C103.041 20.4131 104.448 19.8218 105.467 19.8218C106.915 19.8218 107.67 20.4539 107.67 22.0037V28.4273H106.242V29.5488H110.871V28.4273H109.974C109.668 28.4273 109.423 28.4069 109.423 27.9378V21.5143C109.423 19.1896 107.955 18.3127 106.283 18.3127C104.835 18.3127 103.326 18.9857 102.103 19.8218V18.5778H98.8806V19.6994H99.7779C100.084 19.6994 100.328 19.7198 100.328 20.1888V27.9378ZM117.831 28.468C115.364 28.468 114.202 26.6124 114.202 24.0429C114.202 21.2696 115.446 19.6178 117.77 19.6178C119.157 19.6178 119.932 20.3927 120.299 21.2492H121.319V19.0673C120.442 18.639 119.116 18.2924 117.831 18.2924C115.282 18.2924 112.366 19.5159 112.366 24.0429C112.366 28.5904 115.282 29.7935 117.831 29.7935C119.075 29.7935 120.34 29.508 121.319 29.0186V26.8163H120.36C119.871 27.8563 119.055 28.468 117.831 28.468ZM124.361 27.9378C124.361 28.4069 124.116 28.4273 123.81 28.4273H122.933V29.5488H127.562V28.4273H126.114V21.0249C127.073 20.4131 128.48 19.9237 129.499 19.9237C130.947 19.9237 131.702 20.4743 131.702 22.0241V28.4273H130.274V29.5488H134.903V28.4273H134.006C133.7 28.4273 133.456 28.4069 133.456 27.9378V21.5347C133.456 19.21 131.987 18.3331 130.315 18.3331C129.01 18.3331 127.338 18.9857 126.114 19.8218V13.9896H122.913V15.1112H123.81C124.116 15.1112 124.361 15.1316 124.361 15.6006V27.9378ZM142.297 26.6124C142.174 26.9998 142.011 27.3057 141.542 27.3057H140.645V29.5488H146.314V27.3057H145.05L145.947 24.3896H150.066L150.882 27.3057H149.658V29.5488H156.061V27.3057H155.327C154.858 27.3057 154.695 26.9998 154.573 26.6124L150.759 14.8665H143.867L143.275 17.1096H145.355L142.297 26.6124ZM149.556 22.4116H146.477L147.925 17.5378H148.129L149.556 22.4116ZM159.897 23.9614C159.897 21.9018 160.672 20.6986 162.364 20.6986C163.343 20.6986 163.812 21.2492 164.118 21.9426H166.137V18.741C165.097 18.3535 163.629 18.1088 162.303 18.1088C159.489 18.1088 156.39 19.3731 156.39 23.9614C156.39 28.5496 159.489 29.7935 162.303 29.7935C163.608 29.7935 165.036 29.5896 166.137 29.1818V25.7967H164.139C163.812 26.592 163.404 27.2037 162.405 27.2037C160.651 27.2037 159.897 25.8986 159.897 23.9614ZM171.781 23.0233C168.844 23.0233 167.498 24.4508 167.498 26.3269C167.498 28.5904 169.048 29.712 170.945 29.712C172.005 29.712 173.371 29.2022 174.33 28.4884C174.758 29.3449 175.676 29.712 176.756 29.712C177.429 29.712 178.143 29.5896 178.775 29.508V27.4484H178.286C177.654 27.4484 177.47 27.1833 177.47 26.7143V22.2688C177.47 19.7606 176.022 18.1088 172.759 18.1088C171.719 18.1088 169.945 18.272 168.294 18.6798V21.759H170.251C170.557 20.4947 171.719 20.3112 172.413 20.3112C173.392 20.3112 174.065 20.821 174.065 21.7182V23.0233H171.781ZM174.065 26.7347C173.514 27.1833 172.759 27.3057 172.087 27.3057C171.516 27.2649 170.945 26.9182 170.945 26.1026C170.945 25.1441 171.679 24.7771 172.596 24.7771H174.065V26.7347ZM187.195 18.3943C186.522 18.2516 185.747 18.1088 185.074 18.1088C182.015 18.1088 179.67 19.679 179.67 24.1245C179.67 28.6108 181.873 29.7935 183.891 29.7935C185.196 29.7935 186.42 29.3857 187.562 28.6924C188.011 29.5692 188.887 29.7324 189.907 29.7324C190.58 29.7324 191.355 29.61 191.926 29.5488V27.4484H191.375C190.886 27.4484 190.621 27.2445 190.621 26.7143V13.9896H185.869V16.09H186.665C187.032 16.09 187.195 16.192 187.195 16.5998V18.3943ZM185.074 27.2853C183.871 27.2853 183.178 26.3473 183.178 24.0837C183.178 21.6571 183.687 20.5967 185.706 20.5967C186.155 20.5967 186.746 20.6986 187.195 20.8414V26.4696C186.379 27.0202 185.625 27.2853 185.074 27.2853ZM198.823 29.7935C200.067 29.7935 202.045 29.4469 203.411 28.8147V25.8986H201.8C201.229 27.061 200.026 27.3057 199.231 27.3057C197.477 27.3057 196.682 26.5308 196.661 24.6547H203.615V23.4312C203.615 20.6375 202.575 18.1088 198.64 18.1088C195.295 18.1088 193.032 20.0257 193.032 23.9614C193.032 27.9786 195.152 29.7935 198.823 29.7935ZM196.621 22.6971C196.621 21.4531 197.212 20.3927 198.558 20.3927C200.087 20.3927 200.434 21.5347 200.434 22.6971H196.621ZM223.19 21.4939C223.19 18.9653 221.599 18.1088 219.825 18.1088C218.377 18.1088 217.174 18.7002 216.093 19.5159C215.543 18.5167 214.421 18.1088 213.341 18.1088C212.015 18.1088 210.812 18.4963 209.588 19.3527V18.3739H205.021V20.4743H205.816C206.142 20.4743 206.326 20.5559 206.326 20.9229V27.0202C206.326 27.3873 206.142 27.4484 205.816 27.4484H205.021V29.5488H210.914V27.4484H209.752V21.5143C210.424 21.0861 211.057 20.7802 211.75 20.7802C212.606 20.7802 213.055 21.1677 213.055 22.1261V27.4484H212.341V29.5488H217.623V27.4484H216.481V21.4735C217.154 21.0453 217.827 20.7802 218.581 20.7802C219.377 20.7802 219.764 21.188 219.764 22.1465V27.4484H219.05V29.5488H224.495V27.4484H223.7C223.373 27.4484 223.19 27.3873 223.19 27.0202V21.4939ZM236.184 20.8006C236.245 20.5967 236.326 20.4743 236.551 20.4743H237.244V18.3739H232.207V20.4743H233.451L231.453 26.5104H231.269C230.637 24.4916 229.984 22.4931 229.332 20.4743H230.637V18.3739H224.723V20.4743H225.457C225.641 20.4743 225.763 20.5355 225.824 20.6782L228.944 29.5692H230.351V29.6508C229.556 30.6908 228.74 31.69 227.925 32.73V33.7292H231.86L233.064 29.61L236.184 20.8006Z" fill="#1A1A1A"/>
</svg>
